# xmcd
#
# Track frame offsets:
#	150
#	14735
#	29518
#	44606
#	57452
#	71955
#	85152
#	98162
#	110438
#	123013
#	137208
#	151190
#	163973
#	175000
#	189770
#	203329
#	216297
#	228105
#	240990
#	255708
#
# Disc length: 3561 seconds
#
# Revision: 0
# Processed by: cddbd v1.4PL0 Copyright (c) Steve Scherf et al.
# Submitted via: dBpowerAMP V4.0
#
DISCID=100de714
DTITLE=disque2 - CINE
DYEAR=2001
DGENRE=Country
TTITLE0=night and day  Fres Astaire
TTITLE1=isn't a lovely day  Fred Astaire
TTITLE2=cheek to cheek  Fred Astaire
TTITLE3=I'm putting all my eggs in one basket  Fred Astaire
TTITLE4=the way you look tonight  Fred Astaire
TTITLE5=a fine romance  Fred Astaire
TTITLE6=a foggy day  Fres Astaire
TTITLE7=nice work if you can get it  Fres Astaire
TTITLE8=the yam  Fred Astaire
TTITLE9=change partners  Fred Astaire
TTITLE10=white Christmas  Bing Crosby
TTITLE11=easter parade  Bing Crosby
TTITLE12=I'll capture your heart  Bing Crosby
TTITLE13=the birth of the blues  Bing Crosby
TTITLE14=an apple for the teacher  Bing Crosby
TTITLE15=now it can be told  Bing Crosby
TTITLE16=I've a pocketful of dreams  Bing Crosby
TTITLE17=sing a song of sunbeams  Bing Crosby
TTITLE18=moonlight and shadows  Bing Crosby
TTITLE19=you are my sunshine  Bing Crosby
EXTD=
EXTT0=
EXTT1=
EXTT2=
EXTT3=
EXTT4=
EXTT5=
EXTT6=
EXTT7=
EXTT8=
EXTT9=
EXTT10=
EXTT11=
EXTT12=
EXTT13=
EXTT14=
EXTT15=
EXTT16=
EXTT17=
EXTT18=
EXTT19=
PLAYORDER=
